<svg width="96" height="58" viewBox="0 0 96 58" fill="none" xmlns="http://www.w3.org/2000/svg">
<path d="M12.8613 5.99609C12.8613 7.94922 12.028 9.0625 10.3613 9.33594L12.998 15H10.7812L8.18359 9.4043H3.79883V15H1.79688V0.996094H9.46289C11.7285 0.996094 12.8613 2.13216 12.8613 4.4043V5.99609ZM3.79883 7.40234H9.35547C9.88932 7.40234 10.2734 7.28516 10.5078 7.05078C10.7422 6.81641 10.8594 6.43229 10.8594 5.89844V4.50195C10.8594 3.9681 10.7422 3.58398 10.5078 3.34961C10.2734 3.11523 9.88932 2.99805 9.35547 2.99805H3.79883V7.40234ZM16.2109 0.996094H26.416V2.99805H18.2129V7.00195H25.2148V9.00391H18.2129V12.998H26.416V15H16.2109V0.996094ZM29.4141 2.99805C29.4141 2.72461 29.4661 2.46745 29.5703 2.22656C29.6745 1.97917 29.8177 1.76758 30 1.5918C30.1823 1.40951 30.3939 1.26628 30.6348 1.16211C30.8822 1.05143 31.1426 0.996094 31.416 0.996094H39.0137C39.2871 0.996094 39.5443 1.05143 39.7852 1.16211C40.0326 1.26628 40.2474 1.40951 40.4297 1.5918C40.612 1.76758 40.7552 1.97917 40.8594 2.22656C40.9635 2.46745 41.0156 2.72461 41.0156 2.99805V4.80469H39.0137V2.99805H31.416V12.998H39.0137V11.2012H41.0156V12.998C41.0156 13.2715 40.9635 13.5319 40.8594 13.7793C40.7552 14.0202 40.612 14.2318 40.4297 14.4141C40.2474 14.5964 40.0326 14.7396 39.7852 14.8438C39.5443 14.9479 39.2871 15 39.0137 15H31.416C31.1426 15 30.8822 14.9479 30.6348 14.8438C30.3939 14.7396 30.1823 14.5964 30 14.4141C29.8177 14.2318 29.6745 14.0202 29.5703 13.7793C29.4661 13.5319 29.4141 13.2715 29.4141 12.998V2.99805ZM45.1465 0.996094L49.2188 7.53906L53.3008 0.996094H55.625L50.2246 9.44336V15H48.2227V9.44336L42.8223 0.996094H45.1465ZM57.832 2.99805C57.832 2.72461 57.8841 2.46745 57.9883 2.22656C58.0924 1.97917 58.2357 1.76758 58.418 1.5918C58.6003 1.40951 58.8118 1.26628 59.0527 1.16211C59.3001 1.05143 59.5605 0.996094 59.834 0.996094H67.4316C67.7051 0.996094 67.9622 1.05143 68.2031 1.16211C68.4505 1.26628 68.6654 1.40951 68.8477 1.5918C69.0299 1.76758 69.1732 1.97917 69.2773 2.22656C69.3815 2.46745 69.4336 2.72461 69.4336 2.99805V4.80469H67.4316V2.99805H59.834V12.998H67.4316V11.2012H69.4336V12.998C69.4336 13.2715 69.3815 13.5319 69.2773 13.7793C69.1732 14.0202 69.0299 14.2318 68.8477 14.4141C68.6654 14.5964 68.4505 14.7396 68.2031 14.8438C67.9622 14.9479 67.7051 15 67.4316 15H59.834C59.5605 15 59.3001 14.9479 59.0527 14.8438C58.8118 14.7396 58.6003 14.5964 58.418 14.4141C58.2357 14.2318 58.0924 14.0202 57.9883 13.7793C57.8841 13.5319 57.832 13.2715 57.832 12.998V2.99805ZM74.6387 0.996094V12.998H81.8359V15H72.6367V0.996094H74.6387ZM84.2383 0.996094H94.4434V2.99805H86.2402V7.00195H93.2422V9.00391H86.2402V12.998H94.4434V15H84.2383V0.996094Z" fill="#5BB27E"/>
<path d="M21.08 27.028C21.2 28.06 21.164 28.996 20.972 29.836C20.804 30.652 20.624 31.336 20.432 31.888C20.024 32.944 19.472 33.916 18.776 34.804C18.08 35.668 17.312 36.424 16.472 37.072C15.656 37.72 14.804 38.26 13.916 38.692C13.028 39.124 12.2 39.424 11.432 39.592C11.24 39.64 11.036 39.688 10.82 39.736C10.628 39.76 10.544 39.748 10.568 39.7C10.52 39.652 10.592 39.58 10.784 39.484C10.976 39.388 11.156 39.304 11.324 39.232C12.668 38.584 13.928 37.816 15.104 36.928C16.28 36.04 17.288 34.972 18.128 33.724C18.536 33.124 18.896 32.464 19.208 31.744C19.52 31 19.736 30.232 19.856 29.44C19.976 28.648 19.976 27.844 19.856 27.028C19.736 26.188 19.46 25.372 19.028 24.58C18.476 23.572 17.768 22.756 16.904 22.132C16.04 21.484 15.092 21.004 14.06 20.692C13.028 20.356 11.96 20.164 10.856 20.116C9.776 20.044 8.732 20.092 7.724 20.26C7.58 20.284 7.496 20.296 7.472 20.296C7.448 20.296 7.412 20.284 7.364 20.26C7.364 20.212 7.4 20.176 7.472 20.152C7.568 20.128 7.652 20.092 7.724 20.044C8.156 19.852 8.72 19.696 9.416 19.576C10.136 19.432 10.928 19.384 11.792 19.432C12.656 19.48 13.568 19.648 14.528 19.936C15.512 20.2 16.496 20.656 17.48 21.304C18.464 21.952 19.268 22.804 19.892 23.86C20.54 24.892 20.936 25.948 21.08 27.028ZM18.812 25.516C19.028 26.092 19.148 26.668 19.172 27.244C19.22 27.82 19.196 28.384 19.1 28.936C19.028 29.464 18.896 29.98 18.704 30.484C18.536 30.964 18.332 31.396 18.092 31.78C18.044 31.828 17.984 31.912 17.912 32.032C17.84 32.128 17.768 32.236 17.696 32.356C17.624 32.452 17.552 32.536 17.48 32.608C17.408 32.656 17.36 32.668 17.336 32.644C17.312 32.644 17.312 32.596 17.336 32.5C17.384 32.404 17.42 32.296 17.444 32.176C17.492 32.056 17.54 31.948 17.588 31.852C17.636 31.756 17.672 31.684 17.696 31.636C17.912 31.228 18.056 30.736 18.128 30.16C18.2 29.56 18.212 28.948 18.164 28.324C18.14 27.7 18.044 27.1 17.876 26.524C17.732 25.924 17.516 25.432 17.228 25.048C17.132 24.904 16.94 24.688 16.652 24.4C16.364 24.088 15.98 23.764 15.5 23.428C15.02 23.092 14.456 22.78 13.808 22.492C13.16 22.204 12.428 22.024 11.612 21.952C10.82 21.88 10.016 21.868 9.2 21.916C8.408 21.94 7.652 22.012 6.932 22.132C6.236 22.252 5.612 22.396 5.06 22.564C4.532 22.732 4.136 22.888 3.872 23.032C3.752 23.104 3.632 23.152 3.512 23.176C3.416 23.2 3.368 23.2 3.368 23.176C3.344 23.128 3.368 23.068 3.44 22.996C3.512 22.924 3.572 22.864 3.62 22.816C4.004 22.432 4.58 22.072 5.348 21.736C6.14 21.4 7.004 21.136 7.94 20.944C8.9 20.728 9.872 20.62 10.856 20.62C11.864 20.596 12.764 20.716 13.556 20.98C14.06 21.148 14.576 21.376 15.104 21.664C15.656 21.928 16.16 22.252 16.616 22.636C17.096 23.02 17.528 23.452 17.912 23.932C18.296 24.412 18.596 24.94 18.812 25.516ZM6.5 38.692C6.692 37.612 6.944 36.52 7.256 35.416C7.592 34.288 7.928 33.148 8.264 31.996C8.6 30.916 8.912 29.812 9.2 28.684C9.488 27.556 9.656 26.344 9.704 25.048C9.704 24.928 9.704 24.868 9.704 24.868C9.728 24.868 9.752 24.868 9.776 24.868C9.8 24.868 9.836 24.94 9.884 25.084C10.148 25.684 10.244 26.488 10.172 27.496C10.124 28.48 9.992 29.512 9.776 30.592C9.56 31.648 9.308 32.68 9.02 33.688C8.756 34.672 8.552 35.452 8.408 36.028C8.288 36.46 8.18 36.868 8.084 37.252C7.988 37.612 7.88 37.996 7.76 38.404C8.624 37.828 9.464 37.252 10.28 36.676C11.12 36.076 11.9 35.452 12.62 34.804C13.34 34.132 13.976 33.424 14.528 32.68C15.104 31.936 15.56 31.132 15.896 30.268C16.448 28.828 16.424 27.532 15.824 26.38C15.248 25.204 14.144 24.364 12.512 23.86C11.288 23.5 10.052 23.32 8.804 23.32C9.02 24.136 9.116 25.024 9.092 25.984C9.092 26.944 8.996 27.748 8.804 28.396C8.468 29.668 8.06 30.976 7.58 32.32C7.1 33.64 6.62 34.876 6.14 36.028C6.116 36.076 6.056 36.196 5.96 36.388C5.864 36.58 5.78 36.664 5.708 36.64C5.66 36.64 5.648 36.544 5.672 36.352C5.696 36.136 5.708 36.004 5.708 35.956C5.732 35.668 5.78 35.32 5.852 34.912C5.924 34.504 5.996 34.084 6.068 33.652C6.14 33.22 6.224 32.8 6.32 32.392C6.416 31.96 6.524 31.6 6.644 31.312C6.692 31.144 6.788 30.76 6.932 30.16C7.076 29.56 7.22 28.864 7.364 28.072C7.508 27.28 7.64 26.464 7.76 25.624C7.88 24.76 7.964 23.992 8.012 23.32C7.82 23.32 7.676 23.332 7.58 23.356C7.604 24.34 7.508 25.348 7.292 26.38C7.1 27.388 6.848 28.42 6.536 29.476C6.224 30.508 5.888 31.552 5.528 32.608C5.168 33.664 4.868 34.708 4.628 35.74C4.436 36.532 4.292 37.372 4.196 38.26C4.1 39.148 4.064 40.036 4.088 40.924C4.112 41.812 4.22 42.688 4.412 43.552C4.604 44.392 4.892 45.172 5.276 45.892C5.348 46.012 5.348 46.06 5.276 46.036C5.228 46.036 5.168 46.012 5.096 45.964C4.448 45.22 3.968 44.404 3.656 43.516C3.344 42.628 3.152 41.716 3.08 40.78C3.008 39.82 3.032 38.848 3.152 37.864C3.296 36.88 3.476 35.92 3.692 34.984C3.932 33.976 4.208 32.968 4.52 31.96C4.832 30.952 5.132 29.968 5.42 29.008C5.708 28.024 5.972 27.076 6.212 26.164C6.476 25.228 6.668 24.316 6.788 23.428C6.092 23.524 5.42 23.668 4.772 23.86C4.124 24.028 3.5 24.208 2.9 24.4C2.708 24.448 2.6 24.448 2.576 24.4C2.552 24.352 2.576 24.304 2.648 24.256C2.744 24.208 2.804 24.172 2.828 24.148C3.5 23.74 4.244 23.404 5.06 23.14C5.9 22.852 6.764 22.66 7.652 22.564C8.54 22.444 9.452 22.42 10.388 22.492C11.324 22.54 12.248 22.696 13.16 22.96C14.12 23.248 14.912 23.692 15.536 24.292C16.16 24.892 16.616 25.576 16.904 26.344C17.216 27.088 17.348 27.892 17.3 28.756C17.252 29.596 17.036 30.412 16.652 31.204C16.148 32.212 15.512 33.136 14.744 33.976C13.976 34.792 13.112 35.548 12.152 36.244C11.216 36.94 10.208 37.588 9.128 38.188C8.072 38.764 7.016 39.316 5.96 39.844C5.912 39.868 5.78 39.928 5.564 40.024C5.348 40.096 5.228 40.108 5.204 40.06C5.204 40.036 5.264 39.976 5.384 39.88C5.528 39.76 5.672 39.652 5.816 39.556C6.176 39.364 6.404 39.076 6.5 38.692ZM8.912 39.124C9.272 38.932 9.716 38.68 10.244 38.368C10.796 38.056 11.324 37.756 11.828 37.468C12.332 37.18 12.764 36.94 13.124 36.748C13.508 36.556 13.712 36.484 13.736 36.532C13.76 36.556 13.712 36.64 13.592 36.784C13.496 36.904 13.364 37.048 13.196 37.216C13.028 37.36 12.86 37.504 12.692 37.648C12.524 37.792 12.392 37.9 12.296 37.972C11.816 38.308 11.336 38.608 10.856 38.872C10.4 39.136 9.932 39.376 9.452 39.592C9.044 39.784 8.624 39.952 8.192 40.096C7.784 40.24 7.364 40.396 6.932 40.564C6.812 40.9 6.704 41.236 6.608 41.572C6.536 41.908 6.464 42.22 6.392 42.508C6.368 42.628 6.332 42.748 6.284 42.868C6.26 42.988 6.236 43.048 6.212 43.048C6.164 43.024 6.128 42.94 6.104 42.796C6.104 42.628 6.104 42.496 6.104 42.4C6.104 42.184 6.104 41.932 6.104 41.644C6.104 41.332 6.116 41.068 6.14 40.852C5.972 40.9 5.804 40.972 5.636 41.068C5.492 41.164 5.432 41.308 5.456 41.5C5.456 42.22 5.492 42.868 5.564 43.444C5.684 44.26 5.9 45.04 6.212 45.784C6.236 45.832 6.26 45.892 6.284 45.964C6.332 46.036 6.344 46.084 6.32 46.108C6.272 46.132 6.164 46.084 5.996 45.964C5.732 45.628 5.504 45.304 5.312 44.992C5.12 44.656 4.964 44.152 4.844 43.48C4.796 43.264 4.76 42.976 4.736 42.616C4.736 42.256 4.748 41.92 4.772 41.608C4.772 41.416 4.808 41.248 4.88 41.104C4.952 40.96 5.108 40.828 5.348 40.708C5.492 40.636 5.732 40.528 6.068 40.384C6.428 40.216 6.8 40.048 7.184 39.88C7.568 39.712 7.916 39.556 8.228 39.412C8.564 39.268 8.792 39.172 8.912 39.124ZM28.0027 27.712C27.6667 29.008 27.2467 30.352 26.7427 31.744C26.2627 33.136 25.7587 34.456 25.2307 35.704C25.2067 35.752 25.1467 35.872 25.0507 36.064C24.9547 36.232 24.8827 36.304 24.8347 36.28C24.7627 36.28 24.7267 36.184 24.7267 35.992C24.7507 35.776 24.7747 35.632 24.7987 35.56C24.8227 35.272 24.8707 34.912 24.9427 34.48C25.0387 34.048 25.1227 33.604 25.1947 33.148C25.2907 32.692 25.3867 32.248 25.4827 31.816C25.6027 31.384 25.7107 31.012 25.8067 30.7C25.8787 30.484 26.0107 29.944 26.2027 29.08C26.3947 28.216 26.5747 27.256 26.7427 26.2C26.9347 25.144 27.0787 24.124 27.1747 23.14C27.2707 22.156 27.2707 21.436 27.1747 20.98C27.1267 20.764 27.1267 20.656 27.1747 20.656C27.2227 20.656 27.2587 20.692 27.2827 20.764C27.3307 20.812 27.3787 20.86 27.4267 20.908C27.6907 21.316 27.8947 21.808 28.0387 22.384C28.1827 22.96 28.2667 23.572 28.2907 24.22C28.3387 24.844 28.3267 25.468 28.2547 26.092C28.2067 26.716 28.1227 27.256 28.0027 27.712ZM26.3827 20.008C26.7187 21.16 26.8267 22.36 26.7067 23.608C26.5867 24.832 26.3467 26.092 25.9867 27.388C25.6507 28.684 25.2667 30.004 24.8347 31.348C24.4027 32.692 24.0307 34.024 23.7187 35.344C23.4307 36.592 23.2267 37.828 23.1067 39.052C23.0107 40.276 23.0947 41.524 23.3587 42.796C23.4307 42.676 23.5027 42.592 23.5747 42.544C23.6707 42.496 23.7667 42.436 23.8627 42.364C23.8627 42.076 23.8627 41.788 23.8627 41.5C23.8627 41.188 23.8747 40.912 23.8987 40.672C23.9227 40.432 23.9587 40.24 24.0067 40.096C24.0547 39.952 24.1267 39.88 24.2227 39.88C24.2467 39.88 24.2707 39.94 24.2947 40.06C24.3427 40.18 24.3787 40.324 24.4027 40.492C24.4267 40.636 24.4507 40.792 24.4747 40.96C24.4987 41.104 24.5107 41.2 24.5107 41.248C24.5347 41.44 24.5467 41.584 24.5467 41.68C24.5467 41.776 24.5707 41.884 24.6187 42.004C24.6667 41.98 24.7387 41.956 24.8347 41.932C24.9547 41.884 25.0747 41.848 25.1947 41.824C25.3147 40.096 25.5907 38.38 26.0227 36.676C26.4547 34.948 26.9347 33.208 27.4627 31.456C27.7987 30.328 28.1107 29.176 28.3987 28C28.7107 26.8 28.8907 25.516 28.9387 24.148C28.9387 24.028 28.9747 23.968 29.0467 23.968C29.0707 23.968 29.0827 23.992 29.0827 24.04C29.0827 24.088 29.1067 24.136 29.1547 24.184C29.4187 24.832 29.5147 25.684 29.4427 26.74C29.3707 27.772 29.2267 28.852 29.0107 29.98C28.7947 31.084 28.5427 32.164 28.2547 33.22C27.9667 34.252 27.7507 35.08 27.6067 35.704C27.3427 36.712 27.0427 37.744 26.7067 38.8C26.3707 39.832 26.0467 40.804 25.7347 41.716C26.1907 41.644 26.6707 41.596 27.1747 41.572C27.7027 41.548 28.1827 41.548 28.6147 41.572C29.0467 41.572 29.4187 41.584 29.7307 41.608C30.0667 41.608 30.2827 41.608 30.3787 41.608C31.0747 41.632 31.7947 41.716 32.5387 41.86C33.2827 42.004 33.9307 42.124 34.4827 42.22C34.6747 42.268 34.7707 42.316 34.7707 42.364C34.7707 42.412 34.7347 42.448 34.6627 42.472C34.5907 42.496 34.5307 42.52 34.4827 42.544C33.4267 42.88 32.3587 43.024 31.2787 42.976C30.2227 42.904 29.1187 42.808 27.9667 42.688C27.5347 42.64 27.0787 42.604 26.5987 42.58C26.1427 42.556 25.6867 42.568 25.2307 42.616C24.7747 42.64 24.3307 42.724 23.8987 42.868C23.4907 42.988 23.1187 43.192 22.7827 43.48C22.2547 42.112 22.0267 40.672 22.0987 39.16C22.1707 37.648 22.3867 36.136 22.7467 34.624C23.0587 33.304 23.4187 31.996 23.8267 30.7C24.2347 29.38 24.6067 28.108 24.9427 26.884C25.3027 25.636 25.5907 24.436 25.8067 23.284C26.0467 22.132 26.1547 21.028 26.1307 19.972C26.1787 19.828 26.2147 19.756 26.2387 19.756C26.2627 19.732 26.2867 19.768 26.3107 19.864C26.3347 19.936 26.3587 19.984 26.3827 20.008ZM36.4267 41.5C36.4747 41.428 36.5107 41.44 36.5347 41.536C36.5827 41.608 36.5827 41.704 36.5347 41.824C36.3907 42.184 36.2467 42.496 36.1027 42.76C35.9827 43.024 35.7307 43.288 35.3467 43.552C35.1787 43.672 34.9747 43.78 34.7347 43.876C34.4947 43.972 34.2667 44.044 34.0507 44.092C33.8347 44.14 33.6427 44.164 33.4747 44.164C33.3067 44.164 33.2227 44.116 33.2227 44.02C33.1987 43.948 33.2947 43.852 33.5107 43.732C33.7507 43.612 33.9187 43.528 34.0147 43.48C34.2067 43.36 34.3987 43.252 34.5907 43.156C34.7827 43.036 34.9747 42.904 35.1667 42.76C35.3587 42.568 35.5627 42.376 35.7787 42.184C36.0187 41.992 36.2347 41.764 36.4267 41.5ZM36.6067 42.58C36.6787 42.46 36.7147 42.448 36.7147 42.544C36.7147 42.64 36.7027 42.712 36.6787 42.76C36.3187 43.576 35.8987 44.2 35.4187 44.632C34.9627 45.064 34.4587 45.388 33.9067 45.604C33.3787 45.796 32.8147 45.916 32.2147 45.964C31.6387 45.988 31.0627 46 30.4867 46C28.8787 45.976 27.3067 45.916 25.7707 45.82C24.2587 45.7 22.8907 45.76 21.6667 46C21.6187 46 21.5707 46 21.5227 46C21.4747 46.024 21.4987 46 21.5947 45.928C22.1707 45.352 22.8187 45.004 23.5387 44.884C24.2587 44.764 25.0147 44.752 25.8067 44.848C26.6227 44.92 27.4507 45.04 28.2907 45.208C29.1307 45.376 29.9467 45.472 30.7387 45.496C31.7467 45.52 32.7787 45.316 33.8347 44.884C34.9147 44.428 35.8387 43.66 36.6067 42.58ZM31.0987 44.236C31.0987 44.284 31.0507 44.32 30.9547 44.344C30.8587 44.368 30.7867 44.38 30.7387 44.38C30.3787 44.452 29.8867 44.5 29.2627 44.524C28.6627 44.548 28.1107 44.536 27.6067 44.488C27.4867 44.488 27.2107 44.476 26.7787 44.452C26.3467 44.404 25.8427 44.392 25.2667 44.416C24.7147 44.416 24.1507 44.476 23.5747 44.596C22.9987 44.716 22.5067 44.92 22.0987 45.208C22.0027 45.304 21.9307 45.316 21.8827 45.244C21.8827 45.22 21.8947 45.172 21.9187 45.1C21.9667 45.004 22.0027 44.944 22.0267 44.92C22.3627 44.392 22.8787 43.996 23.5747 43.732C24.2947 43.444 25.0147 43.264 25.7347 43.192C26.5027 43.12 27.3307 43.168 28.2187 43.336C29.1067 43.48 29.9467 43.672 30.7387 43.912C30.7627 43.912 30.8227 43.948 30.9187 44.02C31.0387 44.092 31.0987 44.164 31.0987 44.236ZM49.6483 20.224C49.6003 20.152 49.5283 20.044 49.4323 19.9C49.3603 19.732 49.3483 19.624 49.3963 19.576C49.4443 19.528 49.5163 19.54 49.6123 19.612C49.7323 19.684 49.8043 19.732 49.8283 19.756C50.2603 20.068 50.6563 20.5 51.0163 21.052C51.4003 21.604 51.7363 22.216 52.0243 22.888C52.3363 23.536 52.6123 24.22 52.8523 24.94C53.0923 25.66 53.2843 26.344 53.4283 26.992C53.7883 28.576 54.0883 30.136 54.3283 31.672C54.5923 33.208 54.7243 34.792 54.7243 36.424C54.7243 36.472 54.7243 36.616 54.7243 36.856C54.7483 37.096 54.7123 37.24 54.6163 37.288C54.5443 37.24 54.4603 37.12 54.3643 36.928C54.2923 36.736 54.2443 36.604 54.2203 36.532C53.9323 35.644 53.6683 34.636 53.4283 33.508C53.2123 32.356 53.0083 31.312 52.8163 30.376C52.6723 29.656 52.5403 28.972 52.4203 28.324C52.3003 27.652 52.1563 27.004 51.9883 26.38C51.8443 25.756 51.6643 25.132 51.4483 24.508C51.2563 23.86 51.0163 23.188 50.7283 22.492C50.6803 22.396 50.5963 22.228 50.4763 21.988C50.3803 21.748 50.2723 21.508 50.1523 21.268C50.0323 21.028 49.9243 20.812 49.8283 20.62C49.7323 20.404 49.6723 20.272 49.6483 20.224ZM58.2883 46.9C58.0243 46.756 57.8443 46.66 57.7483 46.612C57.6523 46.588 57.4723 46.492 57.2083 46.324C56.6323 45.988 56.1043 45.556 55.6243 45.028C55.1443 44.476 54.7123 43.876 54.3283 43.228C53.9443 42.58 53.5963 41.896 53.2843 41.176C52.9963 40.432 52.7443 39.7 52.5283 38.98C52.0483 39.292 51.4723 39.484 50.8003 39.556C50.1523 39.604 49.5523 39.628 49.0003 39.628C48.3043 39.628 47.6083 39.604 46.9123 39.556C46.2403 39.508 45.5563 39.484 44.8603 39.484C44.1883 40.732 43.5523 41.944 42.9523 43.12C42.3763 44.272 41.9203 45.352 41.5843 46.36C41.5843 46.384 41.5723 46.432 41.5483 46.504C41.5243 46.6 41.4883 46.648 41.4403 46.648C41.3683 46.648 41.3323 46.564 41.3323 46.396C41.3323 46.228 41.3323 46.12 41.3323 46.072C41.3323 45.112 41.5603 44.044 42.0163 42.868C42.4963 41.668 43.0243 40.492 43.6003 39.34L43.0603 39.304C42.9163 39.64 42.7123 40.108 42.4482 40.708C42.2083 41.308 41.9683 41.932 41.7283 42.58C41.5123 43.228 41.3083 43.852 41.1163 44.452C40.9483 45.052 40.8643 45.532 40.8643 45.892C40.8643 45.964 40.8283 46 40.7563 46C40.6603 46 40.5883 45.928 40.5403 45.784C40.4923 45.616 40.4443 45.436 40.3963 45.244C40.3723 45.052 40.3483 44.86 40.3243 44.668C40.3243 44.452 40.3243 44.308 40.3243 44.236C40.3243 43.396 40.4323 42.52 40.6483 41.608C40.8643 40.672 41.1523 39.82 41.5123 39.052L41.0443 38.98C40.8283 39.508 40.6243 40.036 40.4323 40.564C40.2403 41.068 40.0723 41.596 39.9283 42.148C39.9283 42.196 39.9163 42.256 39.8923 42.328C39.8683 42.4 39.8323 42.424 39.7843 42.4C39.7363 42.304 39.7003 42.196 39.6763 42.076C39.6763 41.932 39.6763 41.812 39.6763 41.716C39.6763 40.708 39.8563 39.736 40.2163 38.8C40.3363 38.56 40.4563 38.44 40.5763 38.44C41.0803 38.296 41.5843 38.212 42.0883 38.188C42.6163 38.164 43.1563 38.152 43.7083 38.152C44.9083 38.152 46.0963 38.248 47.2723 38.44C48.4483 38.608 49.6243 38.692 50.8003 38.692C51.3763 38.692 51.9043 38.644 52.3843 38.548L52.3123 37.972C52.0483 38.044 51.7603 38.092 51.4483 38.116C51.1603 38.14 50.8843 38.152 50.6203 38.152C49.6843 38.152 48.7123 38.056 47.7043 37.864C46.7203 37.672 45.7723 37.444 44.8603 37.18C44.8123 37.132 44.7163 37.096 44.5723 37.072C44.4283 37.024 44.3563 36.964 44.3563 36.892C44.3563 36.844 44.4283 36.808 44.5723 36.784C44.7163 36.736 44.8123 36.712 44.8603 36.712C45.1963 36.688 45.5203 36.676 45.8323 36.676C46.1683 36.652 46.5043 36.64 46.8403 36.64C47.3923 36.64 47.9443 36.652 48.4963 36.676C49.0483 36.676 49.6123 36.676 50.1883 36.676C50.4763 36.676 50.7763 36.676 51.0883 36.676C51.4003 36.676 51.7003 36.664 51.9883 36.64L51.9163 36.244H51.4483C50.2963 36.244 49.1443 36.136 47.9923 35.92C46.8643 35.704 45.7243 35.596 44.5723 35.596C43.5883 35.596 42.7123 35.716 41.9443 35.956C41.2003 36.196 40.5523 36.472 40.0003 36.784C39.4723 37.096 39.0403 37.408 38.7043 37.72C38.3683 38.032 38.1283 38.26 37.9843 38.404C37.9363 38.428 37.9123 38.44 37.9123 38.44C37.8883 38.44 37.8763 38.416 37.8763 38.368C37.8763 38.344 37.8883 38.32 37.9123 38.296C38.3443 37.456 38.8723 36.76 39.4963 36.208C40.1203 35.632 40.8883 35.2 41.8003 34.912C42.7123 32.968 43.6483 31.036 44.6083 29.116C45.5923 27.196 46.6243 25.3 47.7043 23.428C47.7283 23.38 47.7763 23.308 47.8483 23.212C47.9203 23.092 47.9923 23.032 48.0643 23.032C48.0883 23.056 48.1003 23.08 48.1003 23.104V23.176C48.1003 23.368 48.0883 23.512 48.0643 23.608C47.6083 25.552 46.9363 27.424 46.0483 29.224C45.1603 31.024 44.2483 32.8 43.3123 34.552L43.9963 34.516C44.0683 34.372 44.2483 34.06 44.5363 33.58C44.8483 33.1 45.1723 32.608 45.5083 32.104C45.8683 31.576 46.1923 31.108 46.4803 30.7C46.7683 30.268 46.9483 30.052 47.0203 30.052L47.0563 30.16C47.0563 30.28 46.9843 30.544 46.8403 30.952C46.6963 31.36 46.5283 31.804 46.3363 32.284C46.1443 32.764 45.9523 33.22 45.7603 33.652C45.5923 34.06 45.4723 34.348 45.4003 34.516C45.5443 34.516 45.6883 34.528 45.8323 34.552C45.9763 34.552 46.1203 34.552 46.2643 34.552C46.6963 33.688 47.1523 32.788 47.6323 31.852C48.1363 30.892 48.5683 29.92 48.9283 28.936C49.2883 27.952 49.5283 26.956 49.6483 25.948C49.7923 24.94 49.7203 23.944 49.4323 22.96C49.4323 23.08 49.3963 23.32 49.3243 23.68C49.2763 24.04 49.2043 24.424 49.1083 24.832C49.0123 25.216 48.9163 25.564 48.8203 25.876C48.7243 26.164 48.6283 26.308 48.5323 26.308C48.4603 26.308 48.4243 26.26 48.4243 26.164C48.4483 26.068 48.4603 26.008 48.4603 25.984C48.4603 25.36 48.4963 24.748 48.5683 24.148C48.6643 23.524 48.7123 22.9 48.7123 22.276C48.7123 21.436 48.5803 20.62 48.3163 19.828C48.3163 19.804 48.2803 19.708 48.2083 19.54C48.1363 19.348 48.1603 19.252 48.2803 19.252C48.3283 19.252 48.4123 19.312 48.5323 19.432C48.7723 19.672 49.0003 19.996 49.2163 20.404C49.4563 20.812 49.6723 21.256 49.8643 21.736C50.0563 22.192 50.2363 22.648 50.4043 23.104C50.5723 23.56 50.7043 23.944 50.8003 24.256C51.1123 25.288 51.3643 26.332 51.5563 27.388C51.7723 28.42 51.9523 29.464 52.0963 30.52C52.2643 31.552 52.4323 32.596 52.6003 33.652C52.7683 34.708 52.9603 35.752 53.1763 36.784C53.3923 37.792 53.6443 38.776 53.9323 39.736C54.2443 40.696 54.6163 41.608 55.0483 42.472C55.4803 43.336 55.9723 44.14 56.5243 44.884C57.1003 45.604 57.7603 46.24 58.5043 46.792C58.6243 46.912 58.6603 46.984 58.6123 47.008C58.5883 47.056 58.4803 47.02 58.2883 46.9ZM58.2163 43.84C58.2403 43.984 58.2283 44.056 58.1803 44.056C58.1323 44.032 58.0723 43.984 58.0003 43.912C57.9523 43.84 57.8923 43.756 57.8203 43.66C57.7723 43.564 57.7483 43.504 57.7483 43.48C57.1723 42.424 56.7163 41.356 56.3803 40.276C56.0443 39.172 55.7803 38.068 55.5883 36.964C55.3963 35.836 55.2283 34.708 55.0843 33.58C54.9643 32.428 54.8083 31.264 54.6163 30.088C54.4483 28.888 54.2203 27.676 53.9323 26.452C53.6443 25.228 53.2363 23.98 52.7083 22.708C52.6843 22.66 52.6483 22.576 52.6003 22.456C52.5523 22.336 52.5523 22.264 52.6003 22.24C52.6483 22.24 52.7083 22.276 52.7803 22.348L52.9243 22.492C53.4523 23.116 53.9203 23.944 54.3283 24.976C54.7363 26.008 55.0963 27.112 55.4083 28.288C55.7203 29.464 55.9723 30.628 56.1642 31.78C56.3802 32.932 56.5483 33.94 56.6683 34.804C56.8603 36.172 57.0643 37.612 57.2803 39.124C57.4963 40.636 57.7723 42.064 58.1083 43.408L58.2163 43.84ZM47.5243 34.696C48.2203 34.768 48.9043 34.852 49.5763 34.948C50.2723 35.044 50.9683 35.116 51.6643 35.164C51.4003 33.892 51.1723 32.632 50.9803 31.384C50.7883 30.136 50.6083 28.864 50.4403 27.568C50.1283 28.816 49.6963 30.028 49.1443 31.204C48.6163 32.38 48.0763 33.544 47.5243 34.696ZM59.3683 46.504C58.8883 46.288 58.4683 46.084 58.1083 45.892C57.7483 45.676 57.4363 45.388 57.1723 45.028C56.7643 44.476 56.4403 43.924 56.2003 43.372C55.9843 42.82 55.8043 42.304 55.6602 41.824C55.6123 41.632 55.5643 41.416 55.5163 41.176C55.4923 40.936 55.5043 40.816 55.5523 40.816C55.6483 40.816 55.7683 40.972 55.9123 41.284C56.0563 41.596 56.1883 41.86 56.3083 42.076C56.6683 42.82 57.1243 43.576 57.6763 44.344C58.2283 45.088 58.8283 45.7 59.4763 46.18C59.6683 46.348 59.7283 46.456 59.6562 46.504C59.5843 46.552 59.4883 46.552 59.3683 46.504ZM38.0923 39.592C38.0923 39.592 38.0683 39.592 38.0203 39.592H37.9843C37.9843 39.52 37.9963 39.448 38.0203 39.376C38.0443 39.304 38.0683 39.232 38.0923 39.16C38.2843 38.752 38.4643 38.452 38.6323 38.26C38.8243 38.044 39.1243 37.816 39.5322 37.576C39.7723 37.432 40.1083 37.288 40.5403 37.144C40.9723 37 41.3203 36.928 41.5843 36.928C41.6323 36.928 41.6923 36.94 41.7643 36.964C41.8603 36.964 41.9082 37 41.9082 37.072C41.9082 37.144 41.7763 37.24 41.5123 37.36C41.2723 37.48 41.1163 37.564 41.0443 37.612C40.1323 38.164 39.4603 38.584 39.0283 38.872C38.5963 39.16 38.2843 39.4 38.0923 39.592ZM68.9637 44.488C69.8277 44.344 70.6557 44.08 71.4477 43.696C72.2637 43.312 72.9957 42.82 73.6437 42.22C73.6917 42.196 73.7877 42.112 73.9317 41.968C74.0757 41.824 74.1717 41.776 74.2197 41.824C74.2677 41.872 74.2557 41.944 74.1837 42.04C74.1117 42.136 74.0517 42.22 74.0037 42.292C73.5237 42.988 72.8877 43.564 72.0957 44.02C71.3277 44.452 70.5237 44.8 69.6837 45.064C68.9877 45.256 68.2437 45.328 67.4517 45.28C66.6597 45.208 65.9157 45.004 65.2197 44.668C65.0037 44.572 64.8717 44.5 64.8237 44.452C64.7757 44.38 64.7757 44.332 64.8237 44.308C64.8717 44.284 64.9437 44.272 65.0397 44.272C65.1597 44.272 65.2677 44.284 65.3637 44.308C65.6277 44.356 65.9277 44.404 66.2637 44.452C66.6237 44.476 66.9717 44.5 67.3077 44.524C67.6677 44.524 67.9917 44.524 68.2797 44.524C68.5677 44.524 68.7957 44.512 68.9637 44.488ZM64.1397 33.904C64.0197 34.744 63.9597 35.572 63.9597 36.388C63.9597 37.18 64.0077 37.936 64.1037 38.656C64.2237 39.352 64.3917 39.976 64.6077 40.528C64.8477 41.08 65.1357 41.536 65.4717 41.896C65.8557 42.28 66.3237 42.58 66.8757 42.796C67.4517 42.988 68.0637 43.084 68.7117 43.084C69.3837 43.084 70.0797 42.988 70.7997 42.796C71.5437 42.604 72.2757 42.304 72.9957 41.896C73.1397 41.8 73.2357 41.776 73.2837 41.824C73.3317 41.872 73.3077 41.932 73.2117 42.004C73.1397 42.052 73.0677 42.1 72.9957 42.148C72.3717 42.628 71.7117 43.012 71.0157 43.3C70.3197 43.588 69.6117 43.768 68.8917 43.84C68.1957 43.912 67.5117 43.876 66.8397 43.732C66.1917 43.564 65.6037 43.264 65.0757 42.832C64.5717 42.4 64.1637 41.884 63.8517 41.284C63.5397 40.66 63.2997 39.988 63.1317 39.268C62.9877 38.524 62.9037 37.756 62.8797 36.964C62.8557 36.172 62.8797 35.392 62.9517 34.624C63.0477 33.4 63.2877 32.164 63.6717 30.916C64.0557 29.668 64.5597 28.516 65.1837 27.46C65.8317 26.404 66.5997 25.48 67.4877 24.688C68.3757 23.896 69.3717 23.344 70.4757 23.032C71.0277 22.888 71.5917 22.828 72.1677 22.852C72.7437 22.876 73.2717 22.984 73.7517 23.176C74.2557 23.368 74.6877 23.656 75.0477 24.04C75.4077 24.4 75.6477 24.844 75.7677 25.372C75.8877 25.948 75.8397 26.512 75.6237 27.064C75.4077 27.592 75.1077 28.06 74.7237 28.468C74.3397 28.852 73.9077 29.128 73.4277 29.296C72.9477 29.464 72.4917 29.464 72.0597 29.296C72.0357 29.296 72.0117 29.26 71.9877 29.188C71.9877 29.116 72.0357 29.092 72.1317 29.116C72.4197 29.164 72.7437 29.104 73.1037 28.936C73.4877 28.744 73.8237 28.492 74.1117 28.18C74.4237 27.868 74.6637 27.496 74.8317 27.064C75.0237 26.632 75.0837 26.188 75.0117 25.732C74.9397 25.396 74.7837 25.108 74.5437 24.868C74.3277 24.604 74.0397 24.4 73.6797 24.256C73.3197 24.088 72.9117 23.98 72.4557 23.932C72.0237 23.884 71.5677 23.908 71.0877 24.004C70.1757 24.172 69.3237 24.58 68.5317 25.228C67.7637 25.852 67.0797 26.62 66.4797 27.532C65.8797 28.444 65.3757 29.464 64.9677 30.592C64.5597 31.696 64.2837 32.8 64.1397 33.904ZM66.9837 45.82C67.2477 45.844 67.5117 45.856 67.7757 45.856C68.0637 45.856 68.2077 45.892 68.2077 45.964C68.2077 45.988 68.1597 46 68.0637 46C67.9677 46.024 67.8597 46.036 67.7397 46.036C67.6437 46.036 67.5357 46.036 67.4157 46.036C67.2957 46.036 67.2237 46.036 67.1997 46.036C66.4557 46.036 65.7237 45.928 65.0037 45.712C64.2837 45.496 63.6117 45.196 62.9877 44.812C62.3877 44.404 61.8477 43.912 61.3677 43.336C60.8877 42.76 60.5277 42.1 60.2877 41.356C59.8077 39.892 59.5317 38.464 59.4597 37.072C59.3877 35.68 59.4477 34.312 59.6397 32.968C59.7357 32.2 59.9157 31.336 60.1797 30.376C60.4677 29.392 60.8397 28.396 61.2957 27.388C61.7757 26.38 62.3637 25.384 63.0597 24.4C63.7797 23.416 64.6317 22.516 65.6157 21.7C66.6477 20.836 67.7877 20.26 69.0357 19.972C70.3077 19.684 71.5197 19.636 72.6717 19.828C73.8237 20.02 74.8437 20.428 75.7317 21.052C76.6197 21.652 77.2077 22.42 77.4957 23.356C77.5197 23.404 77.5437 23.512 77.5677 23.68C77.5917 23.824 77.5797 23.92 77.5317 23.968C77.5077 23.992 77.4717 23.932 77.4237 23.788C77.3757 23.644 77.3277 23.548 77.2797 23.5C76.2717 22.132 75.1317 21.268 73.8597 20.908C72.5877 20.524 71.3277 20.488 70.0797 20.8C68.8317 21.088 67.6557 21.64 66.5517 22.456C65.4477 23.248 64.5717 24.136 63.9237 25.12C62.7957 26.824 61.9317 28.636 61.3317 30.556C60.7557 32.476 60.4917 34.456 60.5397 36.496C60.5637 37.432 60.6597 38.416 60.8277 39.448C61.0197 40.48 61.3797 41.464 61.9077 42.4C62.4357 43.36 63.1557 44.164 64.0677 44.812C65.0037 45.436 65.9757 45.772 66.9837 45.82ZM61.7997 32.284C61.9917 31.012 62.2917 29.776 62.6997 28.576C63.1317 27.376 63.6837 26.284 64.3557 25.3C65.0517 24.292 65.9037 23.428 66.9117 22.708C67.9197 21.988 69.1077 21.484 70.4757 21.196C70.9557 21.1 71.4957 21.064 72.0957 21.088C72.6957 21.088 73.2957 21.196 73.8957 21.412C74.4957 21.604 75.0477 21.904 75.5517 22.312C76.0797 22.72 76.5117 23.284 76.8477 24.004C77.1597 24.7 77.2677 25.384 77.1717 26.056C77.0757 26.728 76.8717 27.34 76.5597 27.892C76.2477 28.42 75.8637 28.864 75.4077 29.224C74.9517 29.584 74.5077 29.788 74.0757 29.836C73.8117 29.884 73.6677 29.884 73.6437 29.836C73.6197 29.764 73.7517 29.68 74.0397 29.584C74.4957 29.44 74.9517 29.08 75.4077 28.504C75.8877 27.904 76.1757 27.148 76.2717 26.236C76.3197 25.78 76.2597 25.336 76.0917 24.904C75.9237 24.448 75.6837 24.052 75.3717 23.716C75.0597 23.38 74.6877 23.092 74.2557 22.852C73.8237 22.612 73.3677 22.456 72.8877 22.384C71.8557 22.24 70.9077 22.312 70.0437 22.6C69.1797 22.888 68.4237 23.26 67.7757 23.716C67.1517 24.148 66.6357 24.58 66.2277 25.012C65.8437 25.444 65.6037 25.732 65.5077 25.876C64.7637 26.812 64.1157 27.832 63.5637 28.936C63.0117 30.016 62.5557 31.156 62.1957 32.356C62.1957 32.38 62.1717 32.464 62.1237 32.608C62.0997 32.752 62.0637 32.908 62.0157 33.076C61.9917 33.22 61.9557 33.364 61.9077 33.508C61.8597 33.628 61.8237 33.688 61.7997 33.688C61.7517 33.688 61.7277 33.616 61.7277 33.472C61.7277 33.328 61.7277 33.184 61.7277 33.04C61.7277 32.872 61.7397 32.716 61.7637 32.572C61.7877 32.428 61.7997 32.332 61.7997 32.284ZM93.5961 21.052C93.7641 20.932 93.8361 20.932 93.8121 21.052C93.7881 21.148 93.7521 21.232 93.7041 21.304C93.4881 21.64 93.2001 21.928 92.8401 22.168C92.5041 22.408 92.1321 22.6 91.7241 22.744C91.3401 22.888 90.9561 22.996 90.5721 23.068C90.1881 23.14 89.8521 23.176 89.5641 23.176C88.8201 23.176 88.0521 23.104 87.2601 22.96C86.4681 22.816 85.6761 22.66 84.8841 22.492C84.8361 22.492 84.7521 22.468 84.6321 22.42C84.5121 22.372 84.4521 22.324 84.4521 22.276C84.4041 22.204 84.4401 22.144 84.5601 22.096C84.7041 22.048 84.8001 22.024 84.8481 22.024C85.0161 21.976 85.2321 21.94 85.4961 21.916C85.7841 21.868 86.0841 21.832 86.3961 21.808C86.7081 21.784 86.9961 21.772 87.2601 21.772C87.5481 21.772 87.7881 21.772 87.9801 21.772C88.5081 21.82 89.0481 21.844 89.6001 21.844C90.1761 21.844 90.7161 21.82 91.2201 21.772C91.7241 21.724 92.1801 21.64 92.5881 21.52C93.0201 21.4 93.3561 21.244 93.5961 21.052ZM94.1001 19.864C94.2201 19.816 94.2561 19.828 94.2081 19.9C94.1601 19.972 94.1241 20.02 94.1001 20.044C93.4761 20.596 92.7921 20.944 92.0481 21.088C91.3041 21.232 90.5241 21.292 89.7081 21.268C88.9161 21.22 88.0881 21.148 87.2241 21.052C86.3841 20.932 85.5321 20.896 84.6681 20.944C84.1641 20.968 83.6361 21.064 83.0841 21.232C82.5321 21.4 82.0041 21.64 81.5001 21.952C81.0201 22.24 80.5761 22.624 80.1681 23.104C79.7841 23.56 79.4841 24.088 79.2681 24.688C79.2201 24.784 79.1841 24.832 79.1601 24.832C79.1601 24.832 79.1481 24.82 79.1241 24.796C79.1241 24.772 79.1241 24.736 79.1241 24.688C79.1241 24.64 79.1241 24.604 79.1241 24.58C79.2681 23.716 79.5321 22.984 79.9161 22.384C80.3001 21.784 80.7561 21.304 81.2841 20.944C81.8121 20.56 82.3881 20.284 83.0121 20.116C83.6361 19.948 84.2601 19.852 84.8841 19.828C85.7481 19.804 86.5881 19.84 87.4041 19.936C88.2441 20.008 89.0481 20.08 89.8161 20.152C90.6081 20.224 91.3641 20.26 92.0841 20.26C92.8041 20.236 93.4761 20.104 94.1001 19.864ZM82.2561 22.672C82.3041 22.744 82.2321 22.864 82.0401 23.032C81.8481 23.2 81.7041 23.308 81.6081 23.356C81.4161 23.5 81.2361 23.644 81.0681 23.788C80.9001 23.908 80.7441 24.064 80.6001 24.256C80.4081 24.472 80.2401 24.688 80.0961 24.904C79.9761 25.12 79.8561 25.36 79.7361 25.624C79.6881 25.792 79.6401 25.876 79.5921 25.876C79.5681 25.876 79.5561 25.792 79.5561 25.624V25.372C79.6041 25.012 79.6761 24.688 79.7721 24.4C79.8681 24.112 80.0361 23.812 80.2761 23.5C80.3721 23.356 80.5281 23.224 80.7441 23.104C80.9841 22.96 81.2121 22.84 81.4281 22.744C81.6441 22.648 81.8361 22.588 82.0041 22.564C82.1721 22.54 82.2561 22.576 82.2561 22.672ZM91.9761 23.464C92.0961 23.416 92.1441 23.428 92.1201 23.5C92.1201 23.548 92.0961 23.596 92.0481 23.644C91.7361 24.004 91.2801 24.268 90.6801 24.436C90.1041 24.604 89.4801 24.724 88.8081 24.796C88.1361 24.844 87.4641 24.856 86.7921 24.832C86.1441 24.808 85.6041 24.796 85.1721 24.796C85.3161 25.276 85.3761 25.864 85.3521 26.56C85.3521 27.232 85.2921 27.964 85.1721 28.756C85.0761 29.524 84.9441 30.304 84.7761 31.096C84.6081 31.888 84.4401 32.632 84.2721 33.328C84.9201 33.376 85.5561 33.448 86.1801 33.544C86.8041 33.616 87.4041 33.676 87.9801 33.724C88.5561 33.748 89.1081 33.748 89.6361 33.724C90.1641 33.676 90.6801 33.556 91.1841 33.364C91.3041 33.316 91.3641 33.328 91.3641 33.4C91.3641 33.472 91.3401 33.532 91.2921 33.58C90.7161 34.156 90.0801 34.516 89.3841 34.66C88.6881 34.804 87.9561 34.852 87.1881 34.804C86.4201 34.756 85.6401 34.672 84.8481 34.552C84.0561 34.432 83.2641 34.384 82.4721 34.408C81.9681 34.432 81.4641 34.516 80.9601 34.66C80.4561 34.804 79.9641 35.02 79.4841 35.308C79.0281 35.596 78.5961 35.956 78.1881 36.388C77.8041 36.796 77.4921 37.288 77.2521 37.864C77.2281 37.96 77.1921 38.008 77.1441 38.008C77.0961 38.008 77.0721 37.972 77.0721 37.9C77.0721 37.804 77.0841 37.732 77.1081 37.684C77.2281 36.988 77.4321 36.412 77.7201 35.956C78.0081 35.5 78.3561 35.104 78.7641 34.768C79.1721 33.04 79.6281 31.312 80.1321 29.584C80.6601 27.856 81.0921 26.224 81.4281 24.688C81.4041 24.688 81.3201 24.688 81.1761 24.688C81.0561 24.664 80.9961 24.628 80.9961 24.58C80.9961 24.532 81.0321 24.484 81.1041 24.436C81.1761 24.388 81.2481 24.34 81.3201 24.292C82.3281 23.812 83.3601 23.56 84.4161 23.536C85.4721 23.488 86.5521 23.512 87.6561 23.608C88.3521 23.656 89.0481 23.704 89.7441 23.752C90.4641 23.8 91.2081 23.704 91.9761 23.464ZM84.0561 24.796C84.0801 25.396 84.0801 25.96 84.0561 26.488C84.0321 27.016 83.9601 27.484 83.8401 27.892C83.6241 28.756 83.3841 29.656 83.1201 30.592C82.8561 31.528 82.5561 32.44 82.2201 33.328C82.3161 33.304 82.4241 33.292 82.5441 33.292C82.6641 33.292 82.7841 33.292 82.9041 33.292L83.4441 31.6C83.7801 30.544 84.0801 29.452 84.3441 28.324C84.6321 27.196 84.8121 26.02 84.8841 24.796H84.0561ZM82.5081 24.76C82.3161 26.2 81.9681 27.676 81.4641 29.188C80.9601 30.7 80.5041 32.248 80.0961 33.832C80.2881 33.76 80.4561 33.7 80.6001 33.652C80.7681 33.58 80.9241 33.52 81.0681 33.472C81.1881 32.992 81.3081 32.536 81.4281 32.104C81.5481 31.648 81.6681 31.252 81.7881 30.916C81.8361 30.772 81.9201 30.496 82.0401 30.088C82.1601 29.68 82.2921 29.188 82.4361 28.612C82.5801 28.036 82.7241 27.412 82.8681 26.74C83.0121 26.068 83.1201 25.408 83.1921 24.76H82.5081ZM90.8601 34.552C90.9801 34.456 91.0281 34.468 91.0041 34.588C91.0041 34.684 90.9801 34.756 90.9321 34.804C90.7401 35.14 90.4881 35.44 90.1761 35.704C89.8881 35.968 89.5761 36.184 89.2401 36.352C88.9041 36.496 88.5561 36.616 88.1961 36.712C87.8601 36.784 87.5601 36.808 87.2961 36.784C86.5521 36.736 85.7721 36.64 84.9561 36.496C84.1401 36.328 83.3601 36.16 82.6161 35.992C82.5681 35.968 82.4841 35.944 82.3641 35.92C82.2681 35.872 82.2201 35.812 82.2201 35.74C82.1961 35.692 82.2321 35.644 82.3281 35.596C82.4481 35.524 82.5321 35.488 82.5801 35.488C82.7481 35.44 82.9521 35.404 83.1921 35.38C83.4561 35.356 83.7201 35.332 83.9841 35.308C84.2721 35.284 84.5361 35.284 84.7761 35.308C85.0401 35.308 85.2561 35.32 85.4241 35.344C85.8561 35.392 86.3241 35.416 86.8281 35.416C87.3561 35.416 87.8721 35.38 88.3761 35.308C88.9041 35.236 89.3841 35.14 89.8161 35.02C90.2481 34.9 90.5961 34.744 90.8601 34.552ZM91.6521 41.32C91.7001 41.296 91.7241 41.308 91.7241 41.356C91.7241 41.404 91.7121 41.452 91.6881 41.5C91.1601 42.076 90.5721 42.436 89.9241 42.58C89.3001 42.724 88.6401 42.784 87.9441 42.76C87.2481 42.712 86.5401 42.616 85.8201 42.472C85.1001 42.328 84.3921 42.256 83.6961 42.256C82.8081 42.232 81.8961 42.436 80.9601 42.868C80.0481 43.3 79.2801 44.044 78.6561 45.1C78.5841 45.196 78.5361 45.244 78.5121 45.244C78.4881 45.244 78.4761 45.208 78.4761 45.136C78.5001 45.064 78.5121 45.016 78.5121 44.992C78.6081 44.728 78.6921 44.524 78.7641 44.38C78.8601 44.236 78.9561 44.068 79.0521 43.876C78.7161 43.204 78.4761 42.532 78.3321 41.86C78.1881 41.164 78.1041 40.444 78.0801 39.7C78.0801 39.148 78.1281 38.74 78.2241 38.476C78.3201 38.212 78.6441 37.936 79.1961 37.648C80.1081 37.168 81.0801 36.928 82.1121 36.928C83.1441 36.928 84.1761 36.988 85.2081 37.108C85.8801 37.18 86.5521 37.24 87.2241 37.288C87.8961 37.312 88.5921 37.204 89.3121 36.964C89.4321 36.916 89.4801 36.94 89.4561 37.036C89.4321 37.108 89.3961 37.168 89.3481 37.216C89.0361 37.6 88.6041 37.864 88.0521 38.008C87.5001 38.152 86.9121 38.248 86.2881 38.296C85.6641 38.32 85.0641 38.32 84.4881 38.296C83.9121 38.272 83.4561 38.272 83.1201 38.296H82.9041C82.7361 38.872 82.5561 39.424 82.3641 39.952C82.1961 40.456 82.0281 40.948 81.8601 41.428C82.2201 41.308 82.5561 41.224 82.8681 41.176C83.2041 41.104 83.5521 41.08 83.9121 41.104C84.6081 41.128 85.3041 41.2 86.0001 41.32C86.6961 41.44 87.3681 41.548 88.0161 41.644C88.6881 41.716 89.3241 41.752 89.9241 41.752C90.5481 41.728 91.1241 41.584 91.6521 41.32ZM81.6801 38.26C81.5361 38.236 81.3081 38.212 80.9961 38.188C80.7081 38.14 80.3841 38.14 80.0241 38.188C79.7841 38.212 79.5801 38.308 79.4121 38.476C79.2441 38.644 79.1481 38.848 79.1241 39.088C79.0761 39.808 79.0881 40.504 79.1601 41.176C79.2321 41.824 79.3521 42.496 79.5201 43.192L79.9521 42.652C79.9281 42.364 79.9161 42.052 79.9161 41.716C79.9161 41.38 79.9281 41.08 79.9521 40.816C80.0001 40.528 80.0481 40.3 80.0961 40.132C80.1441 39.964 80.2041 39.88 80.2761 39.88C80.3241 39.88 80.3601 39.94 80.3841 40.06C80.4081 40.18 80.4321 40.312 80.4561 40.456C80.4801 40.6 80.4921 40.744 80.4921 40.888C80.5161 41.032 80.5281 41.14 80.5281 41.212C80.5521 41.356 80.5641 41.5 80.5641 41.644C80.5881 41.764 80.6121 41.896 80.6361 42.04C80.7561 41.968 80.8641 41.896 80.9601 41.824C81.0561 41.752 81.1641 41.692 81.2841 41.644C81.3081 40.564 81.4401 39.436 81.6801 38.26ZM91.4001 42.508C91.4001 42.58 91.3761 42.664 91.3281 42.76C91.1841 43.096 90.9801 43.396 90.7161 43.66C90.4521 43.9 90.1641 44.104 89.8521 44.272C89.5401 44.44 89.2161 44.572 88.8801 44.668C88.5681 44.74 88.2921 44.776 88.0521 44.776C87.2121 44.776 86.4441 44.68 85.7481 44.488C85.0761 44.296 84.4041 44.08 83.7321 43.84C83.6841 43.816 83.6121 43.78 83.5161 43.732C83.4201 43.684 83.3601 43.624 83.3361 43.552C83.3121 43.504 83.3601 43.456 83.4801 43.408C83.6001 43.36 83.6841 43.336 83.7321 43.336C83.8761 43.312 84.0561 43.3 84.2721 43.3C84.5121 43.276 84.7521 43.264 84.9921 43.264C85.2561 43.264 85.5081 43.276 85.7481 43.3C85.9881 43.3 86.1921 43.3 86.3601 43.3C86.7681 43.324 87.2121 43.348 87.6921 43.372C88.1721 43.372 88.6281 43.348 89.0601 43.3C89.5161 43.228 89.9361 43.132 90.3201 43.012C90.7281 42.892 91.0401 42.724 91.2561 42.508C91.3281 42.436 91.3761 42.436 91.4001 42.508ZM80.2041 36.028C80.2041 36.1 80.1201 36.208 79.9521 36.352C79.8081 36.496 79.6281 36.652 79.4121 36.82C79.2201 36.988 79.0281 37.144 78.8361 37.288C78.6681 37.432 78.5601 37.528 78.5121 37.576C78.3201 37.768 78.1401 37.96 77.9721 38.152C77.8041 38.32 77.6601 38.536 77.5401 38.8C77.4201 39.016 77.3601 39.052 77.3601 38.908C77.3601 38.74 77.3721 38.62 77.3961 38.548C77.4441 38.356 77.5161 38.104 77.6121 37.792C77.7321 37.456 77.9481 37.132 78.2601 36.82C78.4041 36.7 78.5721 36.58 78.7641 36.46C78.9801 36.316 79.1841 36.208 79.3761 36.136C79.5921 36.04 79.7721 35.98 79.9161 35.956C80.0841 35.932 80.1801 35.956 80.2041 36.028ZM90.0681 44.956C90.0921 45.052 90.0561 45.124 89.9601 45.172C89.6721 45.412 89.2641 45.592 88.7361 45.712C88.2321 45.808 87.6801 45.88 87.0801 45.928C86.5041 45.976 85.9401 46 85.3881 46C84.8361 46 84.3921 46 84.0561 46C83.4561 46 82.8201 45.964 82.1481 45.892C81.5001 45.796 80.9361 45.688 80.4561 45.568C80.4081 45.544 80.3361 45.532 80.2401 45.532C80.1681 45.508 80.1321 45.472 80.1321 45.424C80.1321 45.376 80.1681 45.34 80.2401 45.316C80.3361 45.268 80.4081 45.232 80.4561 45.208C81.3681 44.92 82.2921 44.8 83.2281 44.848C84.1881 44.872 85.1481 44.944 86.1081 45.064C86.7081 45.16 87.3081 45.232 87.9081 45.28C88.5321 45.328 89.1801 45.22 89.8521 44.956C89.9961 44.908 90.0681 44.908 90.0681 44.956ZM81.5361 43.732C81.5361 43.804 81.4521 43.9 81.2841 44.02C81.1401 44.116 80.9721 44.224 80.7801 44.344C80.5881 44.464 80.3961 44.584 80.2041 44.704C80.0361 44.8 79.9161 44.872 79.8441 44.92C79.6521 45.088 79.4841 45.232 79.3401 45.352C79.1961 45.472 79.0521 45.628 78.9081 45.82C78.7881 45.94 78.7041 46 78.6561 46H78.6201V45.964C78.6201 45.964 78.6201 45.94 78.6201 45.892C78.7401 45.532 78.8601 45.232 78.9801 44.992C79.1241 44.752 79.3641 44.5 79.7001 44.236C79.8441 44.14 80.0121 44.044 80.2041 43.948C80.3961 43.828 80.5881 43.744 80.7801 43.696C80.9721 43.624 81.1401 43.588 81.2841 43.588C81.4281 43.588 81.5121 43.636 81.5361 43.732Z" fill="#5BB27E"/>
<line x1="2" y1="53" x2="94" y2="53" stroke="#5BB27E" stroke-width="4"/>
</svg>
